<mxfile host="app.diagrams.net" modified="2021-09-09T10:43:46.081Z" agent="5.0 (Windows NT 10.0; Win64; x64) AppleWebKit/537.36 (KHTML, like Gecko) Chrome/91.0.4472.164 Safari/537.36" etag="z0xicT6KNsXNj6NdGRxu" version="15.1.2" type="github">
  <diagram id="virT9COEyi9W4f-WZoW9" name="Page-1">
    <mxGraphModel dx="1502" dy="603" grid="1" gridSize="10" guides="1" tooltips="1" connect="1" arrows="1" fold="1" page="1" pageScale="1" pageWidth="827" pageHeight="1169" math="0" shadow="0">
      <root>
        <mxCell id="0" />
        <mxCell id="1" parent="0" />
        <mxCell id="7isMHtgnLu8E5VLUzFYS-1" value="" style="group;rotation=0;" vertex="1" connectable="0" parent="1">
          <mxGeometry x="91" y="200" width="1019" height="316" as="geometry" />
        </mxCell>
        <mxCell id="7isMHtgnLu8E5VLUzFYS-2" value="" style="rounded=0;whiteSpace=wrap;html=1;shadow=0;glass=0;sketch=0;fontFamily=Times New Roman;fontSize=16;strokeWidth=3;direction=east;rotation=0;fillColor=#FEF9F5;strokeColor=#B0A0C3;" vertex="1" parent="7isMHtgnLu8E5VLUzFYS-1">
          <mxGeometry x="334.18817204301075" y="27.964601769911503" width="372.5376344086022" height="167.78761061946904" as="geometry" />
        </mxCell>
        <mxCell id="7isMHtgnLu8E5VLUzFYS-3" value="Normal&lt;br style=&quot;font-size: 16px;&quot;&gt;Training" style="rounded=0;whiteSpace=wrap;html=1;fillColor=#FEF9F5;strokeColor=#B0A0C3;strokeWidth=2;fontFamily=Times New Roman;fontSize=16;direction=east;rotation=0;" vertex="1" parent="7isMHtgnLu8E5VLUzFYS-1">
          <mxGeometry x="165.4505376344086" y="227.91150442477874" width="131.48387096774195" height="83.89380530973452" as="geometry" />
        </mxCell>
        <mxCell id="7isMHtgnLu8E5VLUzFYS-4" style="edgeStyle=orthogonalEdgeStyle;rounded=0;orthogonalLoop=1;jettySize=auto;html=1;exitX=0.5;exitY=0;exitDx=0;exitDy=0;fontFamily=Times New Roman;fontSize=16;endArrow=blockThin;endFill=1;strokeWidth=2;entryX=0.5;entryY=0;entryDx=0;entryDy=0;" edge="1" parent="7isMHtgnLu8E5VLUzFYS-1" source="7isMHtgnLu8E5VLUzFYS-5">
          <mxGeometry relative="1" as="geometry">
            <mxPoint x="399.9301075268817" y="130.0353982300885" as="targetPoint" />
          </mxGeometry>
        </mxCell>
        <mxCell id="7isMHtgnLu8E5VLUzFYS-5" value="Sparsity&lt;br style=&quot;font-size: 16px&quot;&gt;Training" style="rounded=0;whiteSpace=wrap;html=1;fillColor=#FEF9F5;strokeColor=#B0A0C3;strokeWidth=2;fontFamily=Times New Roman;fontSize=16;direction=east;rotation=0;" vertex="1" parent="7isMHtgnLu8E5VLUzFYS-1">
          <mxGeometry x="334.18817204301075" y="227.91150442477874" width="131.48387096774195" height="83.89380530973452" as="geometry" />
        </mxCell>
        <mxCell id="7isMHtgnLu8E5VLUzFYS-6" style="edgeStyle=orthogonalEdgeStyle;rounded=0;orthogonalLoop=1;jettySize=auto;html=1;exitX=1;exitY=0.5;exitDx=0;exitDy=0;entryX=0;entryY=0.5;entryDx=0;entryDy=0;fontFamily=Times New Roman;fontSize=16;endArrow=blockThin;endFill=1;strokeWidth=3;" edge="1" parent="7isMHtgnLu8E5VLUzFYS-1" source="7isMHtgnLu8E5VLUzFYS-3" target="7isMHtgnLu8E5VLUzFYS-5">
          <mxGeometry relative="1" as="geometry" />
        </mxCell>
        <mxCell id="7isMHtgnLu8E5VLUzFYS-7" value="Pruning" style="rounded=0;whiteSpace=wrap;html=1;fillColor=#FEF9F5;strokeColor=#B0A0C3;strokeWidth=2;fontFamily=Times New Roman;fontSize=16;direction=east;rotation=0;" vertex="1" parent="7isMHtgnLu8E5VLUzFYS-1">
          <mxGeometry x="548.9451612903226" y="227.91150442477874" width="131.48387096774195" height="83.89380530973452" as="geometry" />
        </mxCell>
        <mxCell id="7isMHtgnLu8E5VLUzFYS-8" style="edgeStyle=orthogonalEdgeStyle;rounded=0;orthogonalLoop=1;jettySize=auto;html=1;exitX=1;exitY=0.5;exitDx=0;exitDy=0;entryX=0;entryY=0.5;entryDx=0;entryDy=0;fontFamily=Times New Roman;fontSize=16;endArrow=blockThin;endFill=1;strokeWidth=3;dashed=1;dashPattern=1 1;opacity=30;" edge="1" parent="7isMHtgnLu8E5VLUzFYS-1" source="7isMHtgnLu8E5VLUzFYS-5" target="7isMHtgnLu8E5VLUzFYS-7">
          <mxGeometry relative="1" as="geometry" />
        </mxCell>
        <mxCell id="7isMHtgnLu8E5VLUzFYS-9" value="Finetuning" style="rounded=0;whiteSpace=wrap;html=1;fillColor=#FEF9F5;strokeColor=#B0A0C3;strokeWidth=2;fontFamily=Times New Roman;fontSize=16;direction=east;rotation=0;" vertex="1" parent="7isMHtgnLu8E5VLUzFYS-1">
          <mxGeometry x="720.9698924731183" y="227.91150442477874" width="131.48387096774195" height="83.89380530973452" as="geometry" />
        </mxCell>
        <mxCell id="7isMHtgnLu8E5VLUzFYS-10" style="edgeStyle=orthogonalEdgeStyle;rounded=0;orthogonalLoop=1;jettySize=auto;html=1;exitX=1;exitY=0.5;exitDx=0;exitDy=0;entryX=0;entryY=0.5;entryDx=0;entryDy=0;fontFamily=Times New Roman;fontSize=16;endArrow=blockThin;endFill=1;strokeColor=#000000;strokeWidth=2;" edge="1" parent="7isMHtgnLu8E5VLUzFYS-1" source="7isMHtgnLu8E5VLUzFYS-7" target="7isMHtgnLu8E5VLUzFYS-9">
          <mxGeometry relative="1" as="geometry" />
        </mxCell>
        <mxCell id="7isMHtgnLu8E5VLUzFYS-11" style="edgeStyle=orthogonalEdgeStyle;rounded=0;orthogonalLoop=1;jettySize=auto;html=1;exitX=1;exitY=0.5;exitDx=0;exitDy=0;fontFamily=Times New Roman;fontSize=16;endArrow=blockThin;endFill=1;strokeWidth=3;" edge="1" parent="7isMHtgnLu8E5VLUzFYS-1" source="7isMHtgnLu8E5VLUzFYS-12">
          <mxGeometry relative="1" as="geometry">
            <mxPoint x="165.4505376344086" y="269.858407079646" as="targetPoint" />
            <Array as="points">
              <mxPoint x="153.3978494623656" y="268.46017699115043" />
              <mxPoint x="153.3978494623656" y="269.858407079646" />
            </Array>
          </mxGeometry>
        </mxCell>
        <mxCell id="7isMHtgnLu8E5VLUzFYS-12" value="Scratch&lt;br&gt;Initialized&lt;br&gt;Network" style="rounded=1;whiteSpace=wrap;html=1;fontFamily=Times New Roman;fontSize=16;strokeWidth=3;strokeColor=#B0A0C3;fillColor=#FCEBDD;direction=east;rotation=0;" vertex="1" parent="7isMHtgnLu8E5VLUzFYS-1">
          <mxGeometry x="1.0956989247311828" y="226.5132743362832" width="131.48387096774195" height="83.89380530973452" as="geometry" />
        </mxCell>
        <mxCell id="7isMHtgnLu8E5VLUzFYS-13" value="Compressed&lt;br&gt;Network" style="rounded=1;whiteSpace=wrap;html=1;fontFamily=Times New Roman;fontSize=16;strokeWidth=3;strokeColor=#B0A0C3;fillColor=#FCEBDD;direction=east;rotation=0;" vertex="1" parent="7isMHtgnLu8E5VLUzFYS-1">
          <mxGeometry x="888.6118279569893" y="227.91150442477874" width="131.48387096774195" height="83.89380530973452" as="geometry" />
        </mxCell>
        <mxCell id="7isMHtgnLu8E5VLUzFYS-14" style="edgeStyle=orthogonalEdgeStyle;rounded=0;orthogonalLoop=1;jettySize=auto;html=1;fontFamily=Times New Roman;fontSize=16;endArrow=blockThin;endFill=1;strokeWidth=2;exitX=1;exitY=0.5;exitDx=0;exitDy=0;" edge="1" parent="7isMHtgnLu8E5VLUzFYS-1" source="7isMHtgnLu8E5VLUzFYS-9" target="7isMHtgnLu8E5VLUzFYS-13">
          <mxGeometry relative="1" as="geometry" />
        </mxCell>
        <mxCell id="7isMHtgnLu8E5VLUzFYS-16" style="edgeStyle=orthogonalEdgeStyle;rounded=0;orthogonalLoop=1;jettySize=auto;html=1;exitX=0;exitY=0.5;exitDx=0;exitDy=0;fontFamily=Times New Roman;fontSize=16;endArrow=none;endFill=0;strokeWidth=2;startArrow=blockThin;startFill=1;" edge="1" parent="7isMHtgnLu8E5VLUzFYS-1" source="7isMHtgnLu8E5VLUzFYS-17">
          <mxGeometry relative="1" as="geometry">
            <mxPoint x="494.16021505376347" y="96.47787610619469" as="targetPoint" />
            <Array as="points">
              <mxPoint x="494.16021505376347" y="96.47787610619469" />
            </Array>
          </mxGeometry>
        </mxCell>
        <mxCell id="7isMHtgnLu8E5VLUzFYS-18" value="" style="endArrow=none;html=1;fontFamily=Times New Roman;fontSize=16;strokeWidth=3;strokeColor=#E65B4D;" edge="1" parent="7isMHtgnLu8E5VLUzFYS-1">
          <mxGeometry width="50" height="50" relative="1" as="geometry">
            <mxPoint x="494.16021505376347" y="283.84070796460173" as="sourcePoint" />
            <mxPoint x="516.0741935483871" y="255.87610619469027" as="targetPoint" />
          </mxGeometry>
        </mxCell>
        <mxCell id="7isMHtgnLu8E5VLUzFYS-19" value="" style="endArrow=none;html=1;fontFamily=Times New Roman;fontSize=16;strokeWidth=3;strokeColor=#E65B4D;" edge="1" parent="7isMHtgnLu8E5VLUzFYS-1">
          <mxGeometry width="50" height="50" relative="1" as="geometry">
            <mxPoint x="516.0741935483871" y="283.84070796460173" as="sourcePoint" />
            <mxPoint x="494.16021505376347" y="255.87610619469027" as="targetPoint" />
          </mxGeometry>
        </mxCell>
        <mxCell id="7isMHtgnLu8E5VLUzFYS-20" value="" style="whiteSpace=wrap;html=1;fontFamily=Times New Roman;fontSize=16;strokeWidth=1;fillColor=#737373;direction=east;rotation=0;" vertex="1" parent="7isMHtgnLu8E5VLUzFYS-1">
          <mxGeometry x="361.5806451612903" y="78.30088495575221" width="10.956989247311828" height="27.964601769911503" as="geometry" />
        </mxCell>
        <mxCell id="7isMHtgnLu8E5VLUzFYS-21" value="" style="whiteSpace=wrap;html=1;fontFamily=Times New Roman;fontSize=16;strokeWidth=1;fillColor=#737373;direction=east;rotation=0;" vertex="1" parent="7isMHtgnLu8E5VLUzFYS-1">
          <mxGeometry x="372.5376344086022" y="78.30088495575221" width="10.956989247311828" height="27.964601769911503" as="geometry" />
        </mxCell>
        <mxCell id="7isMHtgnLu8E5VLUzFYS-22" value="" style="whiteSpace=wrap;html=1;fontFamily=Times New Roman;fontSize=16;strokeWidth=1;fillColor=#E6E6E6;direction=east;rotation=0;" vertex="1" parent="7isMHtgnLu8E5VLUzFYS-1">
          <mxGeometry x="383.494623655914" y="78.30088495575221" width="10.956989247311828" height="27.964601769911503" as="geometry" />
        </mxCell>
        <mxCell id="7isMHtgnLu8E5VLUzFYS-23" value="" style="whiteSpace=wrap;html=1;fontFamily=Times New Roman;fontSize=16;strokeWidth=1;fillColor=#737373;direction=east;rotation=0;" vertex="1" parent="7isMHtgnLu8E5VLUzFYS-1">
          <mxGeometry x="394.4516129032258" y="78.30088495575221" width="10.956989247311828" height="27.964601769911503" as="geometry" />
        </mxCell>
        <mxCell id="7isMHtgnLu8E5VLUzFYS-24" value="" style="whiteSpace=wrap;html=1;fontFamily=Times New Roman;fontSize=16;strokeWidth=1;fillColor=#E6E6E6;direction=east;rotation=0;" vertex="1" parent="7isMHtgnLu8E5VLUzFYS-1">
          <mxGeometry x="405.40860215053766" y="78.30088495575221" width="10.956989247311828" height="27.964601769911503" as="geometry" />
        </mxCell>
        <mxCell id="7isMHtgnLu8E5VLUzFYS-25" value="" style="whiteSpace=wrap;html=1;fontFamily=Times New Roman;fontSize=16;strokeWidth=1;fillColor=#737373;direction=east;rotation=0;" vertex="1" parent="7isMHtgnLu8E5VLUzFYS-1">
          <mxGeometry x="416.36559139784947" y="78.30088495575221" width="10.956989247311828" height="27.964601769911503" as="geometry" />
        </mxCell>
        <mxCell id="7isMHtgnLu8E5VLUzFYS-26" value="" style="whiteSpace=wrap;html=1;fontFamily=Times New Roman;fontSize=16;strokeWidth=1;fillColor=#E6E6E6;direction=east;rotation=0;" vertex="1" parent="7isMHtgnLu8E5VLUzFYS-1">
          <mxGeometry x="427.3225806451613" y="78.30088495575221" width="10.956989247311828" height="27.964601769911503" as="geometry" />
        </mxCell>
        <mxCell id="7isMHtgnLu8E5VLUzFYS-27" value="" style="whiteSpace=wrap;html=1;fontFamily=Times New Roman;fontSize=16;strokeWidth=1;fillColor=#737373;direction=east;rotation=0;" vertex="1" parent="7isMHtgnLu8E5VLUzFYS-1">
          <mxGeometry x="438.2795698924731" y="78.30088495575221" width="10.956989247311828" height="27.964601769911503" as="geometry" />
        </mxCell>
        <mxCell id="7isMHtgnLu8E5VLUzFYS-28" value="" style="whiteSpace=wrap;html=1;fontFamily=Times New Roman;fontSize=16;strokeWidth=1;rounded=1;fillColor=#737373;direction=east;rotation=0;" vertex="1" parent="7isMHtgnLu8E5VLUzFYS-1">
          <mxGeometry x="350.6236559139785" y="78.30088495575221" width="10.956989247311828" height="27.964601769911503" as="geometry" />
        </mxCell>
        <mxCell id="7isMHtgnLu8E5VLUzFYS-29" value="" style="whiteSpace=wrap;html=1;fontFamily=Times New Roman;fontSize=16;strokeWidth=1;fillColor=#737373;direction=east;rotation=0;" vertex="1" parent="7isMHtgnLu8E5VLUzFYS-1">
          <mxGeometry x="449.23655913978496" y="78.30088495575221" width="10.956989247311828" height="27.964601769911503" as="geometry" />
        </mxCell>
        <mxCell id="7isMHtgnLu8E5VLUzFYS-30" value="" style="whiteSpace=wrap;html=1;fontFamily=Times New Roman;fontSize=16;strokeWidth=1;fillColor=#737373;direction=east;rotation=0;" vertex="1" parent="7isMHtgnLu8E5VLUzFYS-1">
          <mxGeometry x="460.19354838709677" y="78.30088495575221" width="10.956989247311828" height="27.964601769911503" as="geometry" />
        </mxCell>
        <mxCell id="7isMHtgnLu8E5VLUzFYS-31" value="" style="whiteSpace=wrap;html=1;fontFamily=Times New Roman;fontSize=16;strokeWidth=1;rounded=1;glass=0;sketch=0;shadow=0;fillColor=#E6E6E6;direction=east;rotation=0;" vertex="1" parent="7isMHtgnLu8E5VLUzFYS-1">
          <mxGeometry x="471.1505376344086" y="78.30088495575221" width="10.956989247311828" height="27.964601769911503" as="geometry" />
        </mxCell>
        <mxCell id="7isMHtgnLu8E5VLUzFYS-32" value="mask&lt;br&gt;generation" style="text;html=1;align=center;verticalAlign=middle;resizable=0;points=[];autosize=1;strokeColor=none;fillColor=none;fontSize=16;fontFamily=Times New Roman;rotation=0;" vertex="1" parent="7isMHtgnLu8E5VLUzFYS-1">
          <mxGeometry x="405.40860215053766" y="116.05309734513274" width="80" height="40" as="geometry" />
        </mxCell>
        <mxCell id="7isMHtgnLu8E5VLUzFYS-17" value="&lt;b&gt;&lt;i&gt;Mask&lt;br&gt;Sparsity&lt;br&gt;Training&lt;/i&gt;&lt;/b&gt;" style="rounded=1;whiteSpace=wrap;html=1;fillColor=#FEF9F5;strokeColor=#B0A0C3;strokeWidth=4;fontFamily=Times New Roman;fontSize=16;direction=east;rotation=0;" vertex="1" parent="7isMHtgnLu8E5VLUzFYS-1">
          <mxGeometry x="548.9451612903226" y="54.530973451327434" width="130.38817204301074" height="83.89380530973452" as="geometry" />
        </mxCell>
        <mxCell id="7isMHtgnLu8E5VLUzFYS-40" style="edgeStyle=orthogonalEdgeStyle;rounded=0;orthogonalLoop=1;jettySize=auto;html=1;exitX=0.5;exitY=0;exitDx=0;exitDy=0;fontFamily=Times New Roman;fontSize=16;endArrow=blockThin;endFill=1;strokeWidth=2;entryX=0.5;entryY=1;entryDx=0;entryDy=0;" edge="1" parent="7isMHtgnLu8E5VLUzFYS-1" target="7isMHtgnLu8E5VLUzFYS-17">
          <mxGeometry relative="1" as="geometry">
            <mxPoint x="614.6870967741936" y="167.78761061946904" as="targetPoint" />
            <mxPoint x="614.4679569892472" y="227.91150442477874" as="sourcePoint" />
          </mxGeometry>
        </mxCell>
      </root>
    </mxGraphModel>
  </diagram>
</mxfile>
